<svg xmlns="http://www.w3.org/2000/svg" width="128" height="128" fill-rule="evenodd" stroke-linejoin="round" stroke-miterlimit="1.41" clip-rule="evenodd" viewBox="0 0 128 128">
    <path d="M128 10a10 10 0 0 0-10-10H10A10 10 0 0 0 0 10v108a10 10 0 0 0 10 10h108a10 10 0 0 0 10-10V10z"/>
    <path fill="#ff0" fill-rule="nonzero" d="M54.82 40.28c-.44.07-1.48 1.15-2.79 2.9-2.49 3.34-2.53 4.07-.22 4.42l1.3.19-1.05.55c-.57.3-1.15.44-1.28.3-.43-.42-1.7.5-1.7 1.24 0 .97 1.5 2.25 3.01 2.57 1.2.25 1.27.37 1.24 1.9-.01 1.25-.1 1.44-.34.83-.9-2.24-3.14-2.33-3.68-.14-.45 1.85.42 4.76 1.5 4.96.9.18 1.76-.9 1.8-2.25.02-.9.06-.93.36-.22.18.43.35 1.34.36 2.04.02.9.31 1.44 1.04 1.92 1.37.9 2.13.37 2.97-2.05.36-1.05.67-1.54.68-1.1 0 .45.37 1.14.8 1.54.72.64.86.65 1.4.12.32-.33.69-1.59.81-2.8l.23-2.2 1.6 1.48c2.69 2.47 9.19 6.67 11.93 7.7 1.73.66 2.96.4 4.67-.97 2.53-2.02 2.26-2.36-3.97-5.05-9.54-4.1-11.55-5.53-10.96-7.76.28-1.08 1.77-1.49 3.61-1 .76.2 1.68.3 2.03.23 1.03-.2 1.61-2.19 1.42-4.82-.25-3.44-.86-3.85-5.7-3.8-4.59.05-5.67.31-5.83 1.41-.18 1.2 1.23 1.82 4.2 1.85 2.5.01 2.54.03 2.67 1.15l.13 1.13-2.91-.25c-3.76-.32-3.9-.15-3.72 4.17.13 3.09.1 3.26-.58 2.9-.55-.3-.93-.2-1.6.45l-.9.83-.18-.99c-.24-1.22-.07-1.39 1.33-1.39.63 0 1.21-.25 1.34-.59.36-.93-.2-2.52-1.21-3.46-.9-.84-.91-.87-.18-1.33 1.05-.66.94-1.3-.45-2.63-.66-.63-1.5-1.76-1.85-2.5-.36-.75-.92-1.41-1.26-1.48h-.07zM23.1 41.36c-1.5 0-2.25 1.05-1.89 2.7l.24 1.08-2.62.25c-2.7.25-3.24.6-3.25 2.1-.01 1.34 1.61 2.2 3.74 1.95l1.78-.2-.24 1.2c-.53 2.7-3.36 4.31-6.82 3.9-3.38-.4-4.65 1.4-2.46 3.49 2.65 2.54 5.37 2.62 8.62.27 1.6-1.16 3.94-4.32 3.94-5.32 0-.28.1-.51.2-.51.12 0 1.74 1.28 3.6 2.85 5.87 4.91 11.57 8.84 12.85 8.84.3 0 1.03-.26 1.63-.57 1.29-.67 2.78-2.83 2.48-3.6-.11-.3-3.82-2.36-8.24-4.6a227.4 227.4 0 0 1-9.6-5.05l-1.55-.98 2.39.08c2.76.09 3.64-.42 3.64-2.1 0-1.39-1.08-1.88-4.11-1.88H25.3v-1.48c0-1.82-.55-2.42-2.2-2.42zm73.7.59c-4.98 0-7.31.14-7.63.45-.67.67-.1 2.44.92 2.85.48.2 3.84.32 7.47.28l6.61-.08.6-1.06c.54-.97.53-1.12-.1-1.75-.61-.62-1.51-.7-7.87-.7zm.27 4.41c-3.35 0-6.75.22-7.4.67-2 1.4-.16 3.6 2.65 3.14l1.56-.25v1.58c0 1.16-.26 1.84-.96 2.54-.87.87-1.27.96-4.28.96-3.19 0-3.33.03-3.56.94-.3 1.24.56 3 1.78 3.62 1.57.79 4.64.6 6.82-.41 2.38-1.11 2.92-1.73 3.55-4.08.27-1 .5-1.44.52-.97.08 2.69 3.53 5.25 11.52 8.55 3.6 1.5 4.25 1.56 5.84.58 1.44-.89 2.85-3.4 2.26-3.99-.23-.22-2.5-.93-5.04-1.58-5.85-1.47-10.02-3.18-10.57-4.33-1.12-2.3-.77-3.4 1.08-3.4.84 0 1.94-1 1.94-1.75 0-.3-.27-.8-.6-1.14-.46-.45-3.76-.68-7.11-.68zM55.45 49c.38-.05.64.15.64.58 0 .2-.48.36-1.07.35-1.02-.01-1.04-.04-.34-.57.28-.21.55-.33.77-.36zM63.1 69.8c-34.28 0-51.81.13-51.81.4 0 .25 17.53.38 51.81.38s51.81-.13 51.81-.39-17.53-.39-51.81-.39zm49.71 5.93c-1.7-.04-3.5.79-3.89 1.92-.58 1.65.01 2.89 2.1 4.4 2.5 1.78 3.08 2.93 2.19 4.3-.36.54-1 .98-1.44.98-.76 0-2.43-1.35-2.74-2.23-.32-.89-1.24-.65-1.89.48-.48.86-1 1.2-1.92 1.3-1.9.18-2.38-.46-2.38-3.1 0-2.26.01-2.3 1.1-2.3.77 0 1.25.28 1.54.89.36.74.42.55.43-1.27 0-2.06-.02-2.1-.6-1.27-.35.5-1.03.88-1.55.88-.86 0-.92-.15-.92-2.17v-2.16l1.46.12c1.17.1 1.57.35 2.04 1.29l.59 1.17.12-1.5a5.2 5.2 0 0 0 0-1.57c-.07-.03-1.88.03-4.02.14-2.15.1-3.59.32-3.21.48.6.24.68.88.68 5.17 0 4-.1 4.94-.58 5.12-1.5.57-.26.92 3.26.92 2.6 0 3.97-.15 4.24-.48.22-.27.48-.84.59-1.27.18-.72.2-.71.24.08.05 1.1 1.12 1.67 3.15 1.67 3.05 0 4.74-1.65 4.14-4.05-.13-.51-1.28-1.84-2.57-2.96-1.29-1.11-2.34-2.34-2.34-2.72 0-1.7 2.55-2.08 3.34-.49.73 1.47.94 1.46.94-.02 0-1.3-.1-1.43-1.38-1.67a4.63 4.63 0 0 0-.72-.08zm-76.95.02a6.37 6.37 0 0 0-6.1 7.51c.29 1.48 1.89 3.59 3.12 4.08 1.53.63 4.64.42 5.97-.4 3.6-2.19 4.12-7 1.06-9.7a5.85 5.85 0 0 0-4.05-1.5zm33.52.09L69 77.3c-.48 1.87-.04 2.14 1.05.67.55-.74 1.2-1.16 1.82-1.16h.96v4.83c0 4.56-.05 4.85-.88 5.43-.83.58-.75.61 1.75.63 1.51.01 2.63-.14 2.63-.37 0-.21-.24-.39-.53-.39-.8 0-1.01-1.27-1.02-5.96v-4.22l1.06.13c.74.08 1.25.48 1.65 1.29l.57 1.17.26-1.17c.55-2.46.76-2.34-4.3-2.34h-4.65zm-50.4.1c-.16.05-2 .1-4.08.1-3.54 0-3.73.03-2.92.6.8.57.86.9.86 5.06 0 4.04-.07 4.5-.78 4.94-.42.27-.77.62-.77.79 0 .16 1.82.3 4.05.3h4.05l.43-1.23c.77-2.23.28-2.66-.82-.72-.53.93-.93 1.16-1.97 1.16-1.82 0-2.24-.6-2.24-3.2 0-2.25 0-2.25 1.18-2.25.86 0 1.28.24 1.54.88.27.68.35.4.35-1.27 0-1.82-.07-2.01-.43-1.27-.29.6-.76.88-1.53.88-1.08 0-1.1-.05-1.1-2.14v-2.15h1.37c1.13 0 1.5.22 2.05 1.17.9 1.58 1.32 1.47 1.17-.29-.06-.8-.25-1.42-.41-1.36zm29.4 0c-1.5-.03-2.35.18-3.12.75a6.45 6.45 0 0 0-2.8 5.06c0 3.83 2.05 5.97 5.74 5.97 1.81 0 2.22-.16 3.64-1.45.88-.8 1.43-1.5 1.22-1.57-.21-.07-.92.4-1.57 1.06-1.6 1.6-3.47 1.62-5.23.05-1.23-1.1-1.28-1.25-1.28-4.13s.05-3.02 1.28-4.12c1.96-1.76 4.76-1.43 5.55.64.53 1.39 1.16 1.16 1.16-.41 0-1.5.53-1.78 1.16-.61.43.8.54 7.43.15 8.89-.13.48-.47.87-.77.87-.3 0-.54.18-.54.4 0 .2 1.04.38 2.34.38 2.21 0 3.03-.43 1.75-.92-.44-.17-.58-.86-.58-2.77V81.5h4.67v2.54c0 1.9-.15 2.6-.58 2.77-1.28.5-.46.92 1.75.92 1.3 0 2.34-.17 2.34-.39 0-.21-.24-.39-.54-.39-.78 0-1-1.26-1.01-5.55-.01-3.28.1-3.9.77-4.58l.78-.78-2.44.02c-2.1 0-2.34.08-1.75.53.48.36.68 1.06.68 2.32v1.8h-4.67v-1.88c0-1.57.14-1.96.87-2.32.71-.36.14-.45-3.02-.48l-5.95-.08zm33.22.1c-2.56 0-2.65.03-1.84.6.82.57.87.9.87 5.21 0 4.34-.05 4.64-.88 5.22-.83.58-.75.61 1.76.63 1.44.01 2.63-.13 2.63-.32 0-.2-.35-.44-.78-.55-.73-.19-.78-.53-.78-4.9 0-4.4.05-4.72.86-5.29.82-.57.72-.6-1.84-.6zm5.14 0c-1.48 0-1.53.03-.91.7.47.53.64 1.46.64 3.46 0 4.3-.39 6.43-1.22 6.65-1.4.36-.7.87 1.22.87 1.08 0 1.95-.11 1.95-.25 0-.13-.27-.44-.6-.69-.48-.35-.58-1.13-.49-3.9l.12-3.45 1.8 4.05c.99 2.23 1.94 4.02 2.1 3.99.44-.09 1.1-1.44 2.39-4.81l1.11-2.92.11 3.3c.1 2.62 0 3.4-.48 3.74-1.03.76-.68.94 1.73.94 1.29 0 2.34-.09 2.34-.2 0-.1-.35-.54-.78-.97-.68-.68-.78-1.3-.78-5.04 0-3.96.06-4.3.87-4.87.84-.59.81-.6-.88-.6h-1.74l-1.54 4.29c-.84 2.35-1.64 4.15-1.78 3.99-.15-.17-1.02-2.1-1.94-4.3l-1.68-3.99h-1.56zm-61.95.02h-1.12c-2.56.02-3.36.13-2.74.38.84.34.87.53.87 5.27 0 4.59-.05 4.93-.78 5.12-1.6.42-.68.9 1.76.9 1.43 0 2.53-.18 2.53-.4 0-.21-.24-.39-.54-.39-.86 0-1.02-.92-1.02-5.87v-4.65h.98c3.15 0 3.39 5.1.3 6.27-.55.21-.9.47-.79.59.45.44 3.04-.36 3.98-1.23 1.36-1.26 1.38-3.71.03-5.06-.77-.77-1.14-.92-3.46-.93zm10.7.37c2.84.05 5.53 4.93 3.65 8.56-1.21 2.35-3.22 2.94-5.06 1.5-2.64-2.08-2.93-7.02-.54-9.25a2.75 2.75 0 0 1 1.95-.81z"/>
</svg>
